<?xml version="1.0" encoding="UTF-8" standalone="no"?>
<svg
   xmlns:dc="http://purl.org/dc/elements/1.1/"
   xmlns:cc="http://creativecommons.org/ns#"
   xmlns:rdf="http://www.w3.org/1999/02/22-rdf-syntax-ns#"
   xmlns:svg="http://www.w3.org/2000/svg"
   xmlns="http://www.w3.org/2000/svg"
   xmlns:sodipodi="http://sodipodi.sourceforge.net/DTD/sodipodi-0.dtd"
   xmlns:inkscape="http://www.inkscape.org/namespaces/inkscape"
   inkscape:export-ydpi="34.39447"
   inkscape:export-xdpi="34.39447"
   inkscape:export-filename="/home/jungo/github/MyTemplates/HTML-CSS/logos/favicon_AJ.png"
   sodipodi:docname="logo_AJ.svg"
   inkscape:version="1.0 (4035a4f, 2020-05-01)"
   id="svg8"
   version="1.1"
   viewBox="0 0 135.46667 135.46667"
   height="512"
   width="512">
  <defs
     id="defs2">
    <rect
       id="rect849"
       height="120.59709"
       width="122.40905"
       y="193.02309"
       x="33.789871" />
    <rect
       x="33.789871"
       y="193.02309"
       width="122.40905"
       height="120.59709"
       id="rect849-5" />
    <rect
       x="33.789871"
       y="193.02309"
       width="122.40905"
       height="120.59709"
       id="rect862" />
    <rect
       x="33.789871"
       y="193.02309"
       width="122.40905"
       height="120.59709"
       id="rect849-7" />
    <rect
       x="33.789871"
       y="193.02309"
       width="122.40905"
       height="120.59709"
       id="rect891" />
    <rect
       id="rect849-5-3"
       height="120.59709"
       width="122.40905"
       y="193.02309"
       x="33.789871" />
    <rect
       id="rect920"
       height="120.59709"
       width="122.40905"
       y="193.02309"
       x="33.789871" />
  </defs>
  <sodipodi:namedview
     inkscape:window-maximized="0"
     inkscape:window-y="111"
     inkscape:window-x="186"
     inkscape:window-height="1199"
     inkscape:window-width="1416"
     units="px"
     showgrid="false"
     inkscape:document-rotation="0"
     inkscape:current-layer="layer2"
     inkscape:document-units="mm"
     inkscape:cy="257.23502"
     inkscape:cx="296.14318"
     inkscape:zoom="1.4"
     inkscape:pageshadow="2"
     inkscape:pageopacity="0.0"
     borderopacity="1.0"
     bordercolor="#666666"
     pagecolor="#ffffff"
     id="base" />
  <metadata
     id="metadata5">
    <rdf:RDF>
      <cc:Work
         rdf:about="">
        <dc:format>image/svg+xml</dc:format>
        <dc:type
           rdf:resource="http://purl.org/dc/dcmitype/StillImage" />
        <dc:title></dc:title>
      </cc:Work>
    </rdf:RDF>
  </metadata>
  <g
     inkscape:label="shadow"
     id="layer2"
     inkscape:groupmode="layer">
    <g
       style="font-size:10.5833px;line-height:1.25;font-family:sans-serif;letter-spacing:0px;word-spacing:0px;white-space:pre;shape-inside:url(#rect849-7);fill:#818181;fill-opacity:1"
       id="text847-1"
       transform="translate(-14.34284,-192.33545)"
       aria-label="A">
      <g
         style="opacity:1"
         id="g1095">
        <path
           id="path1097"
           d="m 56.014051,247.61577 c 1.940276,-6.79097 3.880553,-14.1993 5.556247,-21.34304 h 0.440972 c 1.852082,7.05555 3.61597,14.55207 5.644441,21.34304 l 1.940277,7.14375 H 54.073774 Z m -22.577766,34.04304 h 13.229159 l 4.586109,-16.75694 h 21.166655 l 4.586109,16.75694 H 90.674449 L 69.684182,216.30676 H 54.338357 Z"
           style="color:#000000;font-style:normal;font-variant:normal;font-weight:bold;font-stretch:normal;font-size:88.1944px;line-height:1.25;font-family:'Noto Sans CJK HK';-inkscape-font-specification:'Noto Sans CJK HK, Bold';font-variant-ligatures:normal;font-variant-position:normal;font-variant-caps:normal;font-variant-numeric:normal;font-variant-alternates:normal;font-variant-east-asian:normal;font-feature-settings:normal;font-variation-settings:normal;text-indent:0;text-align:start;text-decoration:none;text-decoration-line:none;text-decoration-style:solid;text-decoration-color:#000000;letter-spacing:0px;word-spacing:0px;text-transform:none;writing-mode:lr-tb;direction:ltr;text-orientation:mixed;dominant-baseline:auto;baseline-shift:baseline;text-anchor:start;white-space:normal;shape-padding:0;shape-margin:0;inline-size:0;clip-rule:nonzero;display:inline;overflow:visible;visibility:visible;isolation:auto;mix-blend-mode:normal;color-interpolation:sRGB;color-interpolation-filters:linearRGB;solid-color:#000000;solid-opacity:1;vector-effect:none;fill:#818181;fill-opacity:1;fill-rule:nonzero;stroke-width:1;stroke-linecap:butt;stroke-linejoin:miter;stroke-miterlimit:4;stroke-dasharray:none;stroke-dashoffset:0;stroke-opacity:1.0;color-rendering:auto;image-rendering:auto;shape-rendering:auto;text-rendering:auto;enable-background:accumulate;stop-color:#000000;stop-opacity:1;stroke:none;" />
        <path
           id="path1099"
           d="M 53.972656 215.80664 L 32.751953 282.1582 L 33.435547 282.1582 L 47.046875 282.1582 L 51.632812 265.40234 L 72.037109 265.40234 L 76.623047 282.1582 L 91.359375 282.1582 L 70.048828 215.80664 L 53.972656 215.80664 z M 54.703125 216.80664 L 69.320312 216.80664 L 89.988281 281.1582 L 77.386719 281.1582 L 72.798828 264.40234 L 50.869141 264.40234 L 46.283203 281.1582 L 34.121094 281.1582 L 54.703125 216.80664 z M 61.173828 225.77344 L 61.083984 226.1582 C 59.410336 233.29322 57.47128 240.69524 55.533203 247.47852 L 55.533203 247.48242 L 55.53125 247.48438 L 53.419922 255.25977 L 70.25 255.25977 L 68.136719 247.47852 L 68.134766 247.47266 C 66.112425 240.70221 64.348511 233.21075 62.494141 226.14648 L 62.396484 225.77344 L 61.173828 225.77344 z M 61.792969 227.40234 C 63.5491 234.15677 65.236637 241.26785 67.175781 247.75977 L 67.173828 247.74609 L 68.941406 254.25977 L 54.728516 254.25977 L 56.494141 247.75391 C 58.344302 241.27834 60.171601 234.23678 61.792969 227.40234 z "
           style="color:#000000;font-style:normal;font-variant:normal;font-weight:bold;font-stretch:normal;font-size:88.1944px;line-height:1.25;font-family:'Noto Sans CJK HK';-inkscape-font-specification:'Noto Sans CJK HK, Bold';font-variant-ligatures:normal;font-variant-position:normal;font-variant-caps:normal;font-variant-numeric:normal;font-variant-alternates:normal;font-variant-east-asian:normal;font-feature-settings:normal;font-variation-settings:normal;text-indent:0;text-align:start;text-decoration:none;text-decoration-line:none;text-decoration-style:solid;text-decoration-color:#000000;letter-spacing:0px;word-spacing:0px;text-transform:none;writing-mode:lr-tb;direction:ltr;text-orientation:mixed;dominant-baseline:auto;baseline-shift:baseline;text-anchor:start;white-space:normal;shape-padding:0;shape-margin:0;inline-size:0;clip-rule:nonzero;display:inline;overflow:visible;visibility:visible;isolation:auto;mix-blend-mode:normal;color-interpolation:sRGB;color-interpolation-filters:linearRGB;solid-color:#000000;solid-opacity:1;vector-effect:none;fill-opacity:1;fill-rule:nonzero;stroke-width:1;stroke-linecap:butt;stroke-linejoin:miter;stroke-miterlimit:4;stroke-dasharray:none;stroke-dashoffset:0;stroke-opacity:1.0;color-rendering:auto;image-rendering:auto;shape-rendering:auto;text-rendering:auto;enable-background:accumulate;stop-color:#000000;stop-opacity:1;stroke:none;" />
      </g>
    </g>
    <g
       style="font-size:10.5833px;line-height:1.25;font-family:sans-serif;letter-spacing:0px;word-spacing:0px;white-space:pre;shape-inside:url(#rect849-5-3);fill:#818181;fill-opacity:1"
       id="text847-0-1"
       transform="translate(34.616697,-166.08796)"
       aria-label="J">
      <g
         style="opacity:1"
         id="g1110">
        <path
           id="path1112"
           d="m 56.014051,282.89353 c 14.022909,0 20.196516,-10.05416 20.196516,-22.31318 v -44.27359 h -13.05277 v 43.21525 c 0,8.99583 -2.99861,12.08264 -8.731246,12.08264 -3.704164,0 -7.868129,-1.38241 -10.425766,-6.1449 l -8.183251,5.96851 c 4.321525,7.58471 10.671522,11.46527 20.196517,11.46527 z"
           style="color:#000000;font-style:normal;font-variant:normal;font-weight:bold;font-stretch:normal;font-size:88.1944px;line-height:1.25;font-family:'Noto Sans CJK HK';-inkscape-font-specification:'Noto Sans CJK HK, Bold';font-variant-ligatures:normal;font-variant-position:normal;font-variant-caps:normal;font-variant-numeric:normal;font-variant-alternates:normal;font-variant-east-asian:normal;font-feature-settings:normal;font-variation-settings:normal;text-indent:0;text-align:start;text-decoration:none;text-decoration-line:none;text-decoration-style:solid;text-decoration-color:#000000;letter-spacing:0px;word-spacing:0px;text-transform:none;writing-mode:lr-tb;direction:ltr;text-orientation:mixed;dominant-baseline:auto;baseline-shift:baseline;text-anchor:start;white-space:normal;shape-padding:0;shape-margin:0;inline-size:0;clip-rule:nonzero;display:inline;overflow:visible;visibility:visible;isolation:auto;mix-blend-mode:normal;color-interpolation:sRGB;color-interpolation-filters:linearRGB;solid-color:#000000;solid-opacity:1;vector-effect:none;fill:#818181;fill-opacity:1;fill-rule:nonzero;stroke-width:1;stroke-linecap:butt;stroke-linejoin:miter;stroke-miterlimit:4;stroke-dasharray:none;stroke-dashoffset:0;stroke-opacity:1.0;color-rendering:auto;image-rendering:auto;shape-rendering:auto;text-rendering:auto;enable-background:accumulate;stop-color:#000000;stop-opacity:1;stroke:none;" />
        <path
           id="path1114"
           d="M 62.658203 215.80664 L 62.658203 259.52148 C 62.658203 263.96384 61.90637 266.87271 60.546875 268.63086 C 59.18738 270.389 57.202355 271.10547 54.425781 271.10547 C 50.846019 271.10547 46.911102 269.82139 44.441406 265.22266 L 44.169922 264.7168 L 35.162109 271.28711 L 35.382812 271.67578 C 39.772318 279.3798 46.352874 283.39258 56.013672 283.39258 C 63.144623 283.39258 68.367674 280.81153 71.757812 276.65039 C 75.147951 272.48925 76.710938 266.79352 76.710938 260.58008 L 76.710938 215.80664 L 62.658203 215.80664 z M 63.658203 216.80664 L 75.710938 216.80664 L 75.710938 260.58008 C 75.710938 266.62566 74.184814 272.08688 70.982422 276.01758 C 67.78003 279.94827 62.90563 282.39258 56.013672 282.39258 C 46.795669 282.39258 40.754964 278.73523 36.511719 271.53906 L 43.898438 266.15234 C 46.567554 270.65326 50.738944 272.10547 54.425781 272.10547 C 57.381843 272.10547 59.764922 271.2764 61.337891 269.24219 C 62.91086 267.20797 63.658203 264.07495 63.658203 259.52148 L 63.658203 216.80664 z "
           style="color:#000000;font-style:normal;font-variant:normal;font-weight:bold;font-stretch:normal;font-size:88.1944px;line-height:1.25;font-family:'Noto Sans CJK HK';-inkscape-font-specification:'Noto Sans CJK HK, Bold';font-variant-ligatures:normal;font-variant-position:normal;font-variant-caps:normal;font-variant-numeric:normal;font-variant-alternates:normal;font-variant-east-asian:normal;font-feature-settings:normal;font-variation-settings:normal;text-indent:0;text-align:start;text-decoration:none;text-decoration-line:none;text-decoration-style:solid;text-decoration-color:#000000;letter-spacing:0px;word-spacing:0px;text-transform:none;writing-mode:lr-tb;direction:ltr;text-orientation:mixed;dominant-baseline:auto;baseline-shift:baseline;text-anchor:start;white-space:normal;shape-padding:0;shape-margin:0;inline-size:0;clip-rule:nonzero;display:inline;overflow:visible;visibility:visible;isolation:auto;mix-blend-mode:normal;color-interpolation:sRGB;color-interpolation-filters:linearRGB;solid-color:#000000;solid-opacity:1;vector-effect:none;fill-opacity:1;fill-rule:nonzero;stroke-width:1;stroke-linecap:butt;stroke-linejoin:miter;stroke-miterlimit:4;stroke-dasharray:none;stroke-dashoffset:0;stroke-opacity:1.0;color-rendering:auto;image-rendering:auto;shape-rendering:auto;text-rendering:auto;enable-background:accumulate;stop-color:#000000;stop-opacity:1;stroke:none;" />
      </g>
    </g>
  </g>
  <g
     id="layer1"
     inkscape:groupmode="layer"
     inkscape:label="Layer 1">
    <g
       style="font-size:10.5833px;line-height:1.25;font-family:sans-serif;letter-spacing:0px;word-spacing:0px;white-space:pre;shape-inside:url(#rect849);fill:#404040;fill-opacity:1"
       id="text847"
       transform="translate(-16.945565,-194.02801)"
       aria-label="A">
      <g
         style="opacity:1"
         id="g1086">
        <path
           id="path1088"
           d="m 56.014051,247.61577 c 1.940276,-6.79097 3.880553,-14.1993 5.556247,-21.34304 h 0.440972 c 1.852082,7.05555 3.61597,14.55207 5.644441,21.34304 l 1.940277,7.14375 H 54.073774 Z m -22.577766,34.04304 h 13.229159 l 4.586109,-16.75694 h 21.166655 l 4.586109,16.75694 H 90.674449 L 69.684182,216.30676 H 54.338357 Z"
           style="color:#000000;font-style:normal;font-variant:normal;font-weight:bold;font-stretch:normal;font-size:88.1944px;line-height:1.25;font-family:'Noto Sans CJK HK';-inkscape-font-specification:'Noto Sans CJK HK, Bold';font-variant-ligatures:normal;font-variant-position:normal;font-variant-caps:normal;font-variant-numeric:normal;font-variant-alternates:normal;font-variant-east-asian:normal;font-feature-settings:normal;font-variation-settings:normal;text-indent:0;text-align:start;text-decoration:none;text-decoration-line:none;text-decoration-style:solid;text-decoration-color:#000000;letter-spacing:0px;word-spacing:0px;text-transform:none;writing-mode:lr-tb;direction:ltr;text-orientation:mixed;dominant-baseline:auto;baseline-shift:baseline;text-anchor:start;white-space:normal;shape-padding:0;shape-margin:0;inline-size:0;clip-rule:nonzero;display:inline;overflow:visible;visibility:visible;isolation:auto;mix-blend-mode:normal;color-interpolation:sRGB;color-interpolation-filters:linearRGB;solid-color:#000000;solid-opacity:1;vector-effect:none;fill:#404040;fill-opacity:1;fill-rule:nonzero;stroke-width:1;stroke-linecap:butt;stroke-linejoin:miter;stroke-miterlimit:4;stroke-dasharray:none;stroke-dashoffset:0;stroke-opacity:1.0;color-rendering:auto;image-rendering:auto;shape-rendering:auto;text-rendering:auto;enable-background:accumulate;stop-color:#000000;stop-opacity:1;stroke:none;" />
        <path
           id="path1090"
           d="M 53.972656 215.80664 L 32.751953 282.1582 L 33.435547 282.1582 L 47.046875 282.1582 L 51.632812 265.40234 L 72.037109 265.40234 L 76.623047 282.1582 L 91.359375 282.1582 L 70.048828 215.80664 L 53.972656 215.80664 z M 54.703125 216.80664 L 69.320312 216.80664 L 89.988281 281.1582 L 77.386719 281.1582 L 72.798828 264.40234 L 50.869141 264.40234 L 46.283203 281.1582 L 34.121094 281.1582 L 54.703125 216.80664 z M 61.173828 225.77344 L 61.083984 226.1582 C 59.410336 233.29322 57.47128 240.69524 55.533203 247.47852 L 55.533203 247.48242 L 55.53125 247.48438 L 53.419922 255.25977 L 70.25 255.25977 L 68.136719 247.47852 L 68.134766 247.47266 C 66.112425 240.70221 64.348511 233.21075 62.494141 226.14648 L 62.396484 225.77344 L 61.173828 225.77344 z M 61.792969 227.40234 C 63.5491 234.15677 65.236637 241.26785 67.175781 247.75977 L 67.173828 247.74609 L 68.941406 254.25977 L 54.728516 254.25977 L 56.494141 247.75391 C 58.344302 241.27834 60.171601 234.23678 61.792969 227.40234 z "
           style="color:#000000;font-style:normal;font-variant:normal;font-weight:bold;font-stretch:normal;font-size:88.1944px;line-height:1.25;font-family:'Noto Sans CJK HK';-inkscape-font-specification:'Noto Sans CJK HK, Bold';font-variant-ligatures:normal;font-variant-position:normal;font-variant-caps:normal;font-variant-numeric:normal;font-variant-alternates:normal;font-variant-east-asian:normal;font-feature-settings:normal;font-variation-settings:normal;text-indent:0;text-align:start;text-decoration:none;text-decoration-line:none;text-decoration-style:solid;text-decoration-color:#000000;letter-spacing:0px;word-spacing:0px;text-transform:none;writing-mode:lr-tb;direction:ltr;text-orientation:mixed;dominant-baseline:auto;baseline-shift:baseline;text-anchor:start;white-space:normal;shape-padding:0;shape-margin:0;inline-size:0;clip-rule:nonzero;display:inline;overflow:visible;visibility:visible;isolation:auto;mix-blend-mode:normal;color-interpolation:sRGB;color-interpolation-filters:linearRGB;solid-color:#000000;solid-opacity:1;vector-effect:none;fill-opacity:1;fill-rule:nonzero;stroke-width:1;stroke-linecap:butt;stroke-linejoin:miter;stroke-miterlimit:4;stroke-dasharray:none;stroke-dashoffset:0;stroke-opacity:1.0;color-rendering:auto;image-rendering:auto;shape-rendering:auto;text-rendering:auto;enable-background:accumulate;stop-color:#000000;stop-opacity:1;stroke:none;" />
      </g>
    </g>
    <g
       style="font-size:10.5833px;line-height:1.25;font-family:sans-serif;letter-spacing:0px;word-spacing:0px;white-space:pre;shape-inside:url(#rect849-5);opacity:1;fill:#404040;fill-opacity:1"
       id="text847-0"
       transform="translate(32.541875,-167.81666)"
       aria-label="J">
      <g
         style="opacity:1"
         id="g1104">
        <path
           id="path1106"
           d="m 56.014051,282.89353 c 14.022909,0 20.196516,-10.05416 20.196516,-22.31318 v -44.27359 h -13.05277 v 43.21525 c 0,8.99583 -2.99861,12.08264 -8.731246,12.08264 -3.704164,0 -7.143746,-2.02848 -9.701383,-6.79097 l -8.907634,6.61458 c 4.321525,7.58471 10.671522,11.46527 20.196517,11.46527 z"
           style="color:#000000;font-style:normal;font-variant:normal;font-weight:bold;font-stretch:normal;font-size:88.1944px;line-height:1.25;font-family:'Noto Sans CJK HK';-inkscape-font-specification:'Noto Sans CJK HK, Bold';font-variant-ligatures:normal;font-variant-position:normal;font-variant-caps:normal;font-variant-numeric:normal;font-variant-alternates:normal;font-variant-east-asian:normal;font-feature-settings:normal;font-variation-settings:normal;text-indent:0;text-align:start;text-decoration:none;text-decoration-line:none;text-decoration-style:solid;text-decoration-color:#000000;letter-spacing:0px;word-spacing:0px;text-transform:none;writing-mode:lr-tb;direction:ltr;text-orientation:mixed;dominant-baseline:auto;baseline-shift:baseline;text-anchor:start;white-space:normal;shape-padding:0;shape-margin:0;inline-size:0;clip-rule:nonzero;display:inline;overflow:visible;visibility:visible;isolation:auto;mix-blend-mode:normal;color-interpolation:sRGB;color-interpolation-filters:linearRGB;solid-color:#000000;solid-opacity:1;vector-effect:none;fill:#404040;fill-opacity:1;fill-rule:nonzero;stroke-width:1;stroke-linecap:butt;stroke-linejoin:miter;stroke-miterlimit:4;stroke-dasharray:none;stroke-dashoffset:0;stroke-opacity:1.0;color-rendering:auto;image-rendering:auto;shape-rendering:auto;text-rendering:auto;enable-background:accumulate;stop-color:#000000;stop-opacity:1;stroke:none;" />
        <path
           id="path1108"
           d="M 62.658203 215.80664 L 62.658203 259.52148 C 62.658203 263.96384 61.90637 266.87271 60.546875 268.63086 C 59.18738 270.389 57.202355 271.10547 54.425781 271.10547 C 50.904158 271.10547 47.663247 269.22618 45.166016 264.57617 L 44.892578 264.06641 L 35.164062 271.29102 L 35.382812 271.67578 C 39.772318 279.3798 46.352874 283.39258 56.013672 283.39258 C 63.144623 283.39258 68.367674 280.81153 71.757812 276.65039 C 75.147951 272.48925 76.710938 266.79352 76.710938 260.58008 L 76.710938 215.80664 L 62.658203 215.80664 z M 63.658203 216.80664 L 75.710938 216.80664 L 75.710938 260.58008 C 75.710938 266.62566 74.184814 272.08688 70.982422 276.01758 C 67.78003 279.94827 62.90563 282.39258 56.013672 282.39258 C 46.794612 282.39258 40.75308 278.73493 36.509766 271.53711 L 44.607422 265.52539 C 47.199749 270.02288 50.685139 272.10547 54.425781 272.10547 C 57.381843 272.10547 59.764922 271.2764 61.337891 269.24219 C 62.91086 267.20797 63.658203 264.07495 63.658203 259.52148 L 63.658203 216.80664 z "
           style="color:#000000;font-style:normal;font-variant:normal;font-weight:bold;font-stretch:normal;font-size:88.1944px;line-height:1.25;font-family:'Noto Sans CJK HK';-inkscape-font-specification:'Noto Sans CJK HK, Bold';font-variant-ligatures:normal;font-variant-position:normal;font-variant-caps:normal;font-variant-numeric:normal;font-variant-alternates:normal;font-variant-east-asian:normal;font-feature-settings:normal;font-variation-settings:normal;text-indent:0;text-align:start;text-decoration:none;text-decoration-line:none;text-decoration-style:solid;text-decoration-color:#000000;letter-spacing:0px;word-spacing:0px;text-transform:none;writing-mode:lr-tb;direction:ltr;text-orientation:mixed;dominant-baseline:auto;baseline-shift:baseline;text-anchor:start;white-space:normal;shape-padding:0;shape-margin:0;inline-size:0;clip-rule:nonzero;display:inline;overflow:visible;visibility:visible;isolation:auto;mix-blend-mode:normal;color-interpolation:sRGB;color-interpolation-filters:linearRGB;solid-color:#000000;solid-opacity:1;vector-effect:none;fill-opacity:1;fill-rule:nonzero;stroke-width:1;stroke-linecap:butt;stroke-linejoin:miter;stroke-miterlimit:4;stroke-dasharray:none;stroke-dashoffset:0;stroke-opacity:1.0;color-rendering:auto;image-rendering:auto;shape-rendering:auto;text-rendering:auto;enable-background:accumulate;stop-color:#000000;stop-opacity:1;stroke:none;" />
      </g>
    </g>
  </g>
</svg>
